<svg xmlns="http://www.w3.org/2000/svg" viewBox="0 0 1024 1024">
  <path fill="#E50914" d="M140.803 258.904c-15.404 2.705-31.079 3.516-47.294 5.676L44.051 119.724v393.175C48.52 385.766 57.9 268.217 140.803 258.904zm866.971 232.548h-63.391c-15.404 0-25.745 10.341-25.745 25.745 0 15.405 10.341 25.745 25.745 25.745h63.391c15.404 0 25.745-10.34 25.745-25.745 0-15.404-10.341-25.745-25.745-25.745zM97.553 298.814c-15.404 0-25.745 10.341-25.745 25.745 0 15.405 10.341 25.745 25.745 25.745h63.391c15.404 0 25.745-10.34 25.745-25.745 0-15.404-10.341-25.745-25.745-25.745H97.553zM140.803 258.904c-15.404 2.705-31.079 3.516-47.294 5.676L44.051 119.724v393.175C48.52 385.766 57.9 268.217 140.803 258.904zm0 0c-18.117 46.55-10.376 111.882 16.89 166.045l50.178-50.178-67.068-115.867zm396.852 206.35c9.731 9.73 24.319 9.73 34.05 0l50.178-50.178c9.729-9.73 9.729-24.319 0-34.049l-50.178-50.177c-9.731-9.73-24.319-9.73-34.05 0l-50.177 50.177c-9.73 9.73-9.73 24.319 0 34.049l50.177 50.178zm-35.655-67.678l33.627-33.628 33.628 33.628-33.628 33.628-33.627-33.628zm119.639-67.678c9.731 9.73 24.319 9.73 34.05 0l50.178-50.178c9.729-9.73 9.729-24.319 0-34.049l-50.178-50.177c-9.731-9.73-24.319-9.73-34.05 0l-50.177 50.177c-9.73 9.73-9.73 24.319 0 34.049l50.177 50.178zm-35.655-67.678l33.627-33.628 33.628 33.628-33.628 33.628-33.627-33.628zm-388.542 0c9.731 9.73 24.319 9.73 34.05 0l50.178-50.178c9.729-9.73 9.729-24.319 0-34.049l-50.178-50.177c-9.731-9.73-24.319-9.73-34.05 0l-50.177 50.177c-9.73 9.73-9.73 24.319 0 34.049l50.177 50.178zm-35.655-67.678l33.627-33.628 33.628 33.628-33.628 33.628-33.627-33.628zm119.639-67.678c9.731 9.73 24.319 9.73 34.05 0l50.178-50.178c9.729-9.73 9.729-24.319 0-34.049l-50.178-50.177c-9.731-9.73-24.319-9.73-34.05 0l-50.177 50.177c-9.73 9.73-9.73 24.319 0 34.049l50.177 50.178zm-35.655-67.678l33.627-33.628 33.628 33.628-33.628 33.628-33.627-33.628zm196.309-67.678c9.731 9.73 24.319 9.73 34.05 0l50.178-50.178c9.729-9.73 9.729-24.319 0-34.049l-50.178-50.177c-9.731-9.73-24.319-9.73-34.05 0l-50.177 50.177c-9.73 9.73-9.73 24.319 0 34.049l50.177 50.178zm-35.655-67.678l33.627-33.628 33.628 33.628-33.628 33.628-33.627-33.628zm-35.656 271.36c9.731 9.73 24.319 9.73 34.05 0l50.178-50.178c9.729-9.73 9.729-24.319 0-34.049l-50.178-50.177c-9.731-9.73-24.319-9.73-34.05 0l-50.177 50.177c-9.73 9.73-9.73 24.319 0 34.049l50.177 50.178zm-35.655-67.678l33.627-33.628 33.628 33.628-33.628 33.628-33.627-33.628zm395.851 67.678c9.731 9.73 24.319 9.73 34.05 0l50.178-50.178c9.729-9.73 9.729-24.319 0-34.049l-50.178-50.177c-9.731-9.73-24.319-9.73-34.05 0l-50.177 50.177c-9.73 9.73-9.73 24.319 0 34.049l50.177 50.178zm-35.655-67.678l33.627-33.628 33.628 33.628-33.628 33.628-33.627-33.628zm155.294-67.678c9.731 9.73 24.319 9.73 34.05 0l50.178-50.178c9.729-9.73 9.729-24.319 0-34.049l-50.178-50.177c-9.731-9.73-24.319-9.73-34.05 0l-50.177 50.177c-9.73 9.73-9.73 24.319 0 34.049l50.177 50.178zm-35.655-67.678l33.627-33.628 33.628 33.628-33.628 33.628-33.627-33.628z"/>
</svg>